<svg width="48" height="48" viewBox="0 0 48 48" fill="none" xmlns="http://www.w3.org/2000/svg">
<g clip-path="url(#clip0_3_22)">
<path d="M24.0075 -0.0164795C10.752 -0.0164795 0.00749969 10.728 0.00749969 23.9835C0.00749969 37.2375 10.752 47.9835 24.0075 47.9835C37.263 47.9835 48.0075 37.2375 48.0075 23.9835C48.0075 10.7295 37.263 -0.0164795 24.0075 -0.0164795V-0.0164795Z" fill="#E02F2F"/>
<path d="M36.4485 34.398V25.1925C36.4485 20.2605 33.816 17.9655 30.3045 17.9655C27.471 17.9655 26.202 19.524 25.4955 20.6175V18.342H20.1585C20.229 19.8495 20.1585 34.398 20.1585 34.398H25.4955V25.431C25.4955 24.9525 25.53 24.4725 25.671 24.1305C26.0565 23.172 26.934 22.179 28.4085 22.179C30.3405 22.179 31.113 23.6505 31.113 25.809V34.3995L36.4485 34.398ZM14.535 16.1505C16.395 16.1505 17.5545 14.916 17.5545 13.3755C17.52 11.8005 16.395 10.602 14.5695 10.602C12.744 10.602 11.5515 11.799 11.5515 13.374C11.5515 14.916 12.7095 16.149 14.502 16.149H14.535V16.1505ZM17.2035 34.398V18.342H11.868V34.398H17.2035V34.398Z" fill="white"/>
</g>
<defs>
<clipPath id="clip0_3_22">
<rect width="48" height="48" fill="white"/>
</clipPath>
</defs>
</svg>
