<svg width="72" height="72" viewBox="0 0 72 72" fill="none" xmlns="http://www.w3.org/2000/svg">
<path d="M36 72C55.8823 72 72 55.8823 72 36.0001C72 16.1179 55.8823 0 36 0C16.1177 0 0 16.1179 0 36.0001C0 55.8823 16.1177 72 36 72Z" fill="#EF4C45"/>
<path d="M51.9165 68.2693C52.0549 68.2087 52.1929 68.1472 52.3305 68.0848C53.4 67.5395 54.4415 66.941 55.4512 66.2916C56.4605 65.6433 57.4367 64.9449 58.3762 64.1991C59.3159 63.4541 60.2178 62.6626 61.0785 61.8276C61.941 60.9902 62.761 60.1101 63.5355 59.1906C64.308 58.2734 65.0341 57.3182 65.7112 56.3286C66.3891 55.3369 67.0169 54.3119 67.5922 53.2574C67.9778 52.526 68.338 51.7815 68.6722 51.0254L43.101 25.4519L43.0177 25.3844C42.8197 25.1887 42.5857 25.0334 42.372 24.8557C42.102 24.6307 41.8432 24.3877 41.5507 24.1919C41.1795 23.9444 40.7745 23.7509 40.3717 23.5552C40.203 23.4719 40.05 23.3639 39.8767 23.2919C39.433 23.1172 38.9773 22.9743 38.5132 22.8644C38.3355 22.8194 38.1712 22.7384 37.9912 22.7024C36.5215 22.4082 35.0048 22.4433 33.5503 22.8053C32.0958 23.1673 30.7395 23.8472 29.5792 24.796C28.4188 25.7449 27.4832 26.9391 26.8396 28.2928C26.196 29.6465 25.8604 31.126 25.857 32.6249C25.8563 32.744 25.8745 32.8625 25.911 32.9759C26.0032 36.5309 27.5422 39.6359 29.3535 42.5204C31.2255 45.4971 33.3922 48.2871 34.7827 51.1356C34.8927 51.361 35.0749 51.5431 35.3002 51.6531L51.9165 68.2693V68.2693Z" fill="#DF2209"/>
<path d="M35.982 22.5001C30.402 22.5001 25.857 27.0451 25.857 32.6251C25.8563 32.7442 25.8745 32.8627 25.911 32.9761C26.0032 36.5311 27.5422 39.6361 29.3535 42.5206C31.2255 45.4973 33.3922 48.2873 34.7827 51.1358C34.8739 51.3241 35.0158 51.4832 35.1925 51.5953C35.3691 51.7073 35.5735 51.768 35.7827 51.7703C35.9918 51.7726 36.1975 51.7166 36.3766 51.6085C36.5557 51.5004 36.7011 51.3445 36.7965 51.1583C38.2545 48.312 40.5315 45.5175 42.5002 42.5431C44.4645 39.5686 46.143 36.3556 46.143 32.6431C46.1451 32.5001 46.1199 32.3581 46.0687 32.2246C45.8527 26.8358 41.4225 22.5001 35.982 22.5001ZM35.982 24.7501C40.347 24.7501 43.857 28.2623 43.857 32.6251C43.8558 32.7059 43.8634 32.7866 43.8795 32.8658C43.812 35.8088 42.4485 38.5358 40.617 41.3033C39.0712 43.6456 37.3252 46.0643 35.8155 48.5775C34.3822 46.0755 32.7307 43.6613 31.2637 41.3258C29.4772 38.4841 28.143 35.6896 28.143 32.6408C28.1435 32.5707 28.1375 32.5006 28.125 32.4316C28.1686 30.3776 29.0159 28.4226 30.4849 26.9864C31.9539 25.5502 33.9275 24.7473 35.982 24.7501V24.7501ZM35.982 29.2591C34.1325 29.2591 32.607 30.7823 32.607 32.6341C32.607 34.4836 34.1325 36.0091 35.982 36.0091C37.8337 36.0091 39.357 34.4836 39.357 32.6341C39.357 30.7823 37.8337 29.2591 35.982 29.2591V29.2591ZM35.982 31.5091C36.6165 31.5091 37.107 31.9996 37.107 32.6341C37.107 33.2686 36.6165 33.7591 35.982 33.7591C35.8337 33.7612 35.6864 33.7335 35.549 33.6778C35.4115 33.622 35.2867 33.5392 35.1818 33.4343C35.0769 33.3294 34.9941 33.2045 34.9383 33.0671C34.8825 32.9296 34.8549 32.7824 34.857 32.6341C34.857 31.9996 35.3475 31.5091 35.982 31.5091V31.5091Z" fill="white"/>
</svg>
