<svg width="439" height="427" viewBox="0 0 439 427" fill="none" xmlns="http://www.w3.org/2000/svg">
<circle cx="223.989" cy="268" r="159" fill="#F38472"/>
<path fill-rule="evenodd" clip-rule="evenodd" d="M166.349 205.485C174.486 201.143 182.624 196.801 190.804 192.536C191.53 192.156 191.921 193.13 191.223 193.514L191.067 193.6C188.094 195.235 185.125 196.867 182.139 198.478C171.458 204.236 160.777 209.994 150.097 215.754C149.783 215.882 149.436 215.841 149.213 215.649C148.99 215.457 148.934 215.152 149.069 214.87C149.992 213.462 150.906 212.05 151.819 210.638C152.849 209.046 153.878 207.455 154.922 205.87C161.482 195.909 168.042 185.949 174.602 175.989C175.418 175.692 176.234 175.398 177.052 175.105L175.858 174.082C175.439 174.718 175.021 175.353 174.602 175.989C172.622 176.71 170.648 177.442 168.678 178.188C158.888 181.898 149.235 185.924 139.721 190.269C139.285 190.443 138.806 190.356 138.543 190.053C138.28 189.75 138.294 189.304 138.578 188.955L144.452 181.16C150.831 172.741 157.21 164.323 163.589 155.907C164.442 155.666 165.296 155.429 166.151 155.196L165.237 153.733C164.687 154.458 164.138 155.182 163.589 155.907C161.791 156.414 159.997 156.938 158.206 157.479C148.959 160.28 139.824 163.491 130.837 167.099C130.359 167.291 129.835 167.196 129.547 166.864C129.258 166.533 129.274 166.045 129.585 165.662C135.221 158.738 140.855 151.814 146.489 144.888C147.601 144.538 148.711 144.175 149.816 143.799L148.556 142.347C147.867 143.194 147.178 144.041 146.489 144.888C140.837 146.669 135.1 148.117 129.319 149.223C128.862 149.296 128.433 149.126 128.223 148.791C128.013 148.455 128.062 148.015 128.348 147.668C131.853 144.286 134.966 140.611 137.63 136.713C138.192 136.74 138.754 136.766 139.316 136.793L138.477 135.443C138.2 135.869 137.917 136.292 137.63 136.713C135.275 136.602 132.919 136.493 130.564 136.384L128.467 136.29C127.867 136.32 127.274 136.283 126.704 136.179C126.132 135.843 125.679 135.377 125.383 134.822L124.395 133.577C123.041 131.857 121.734 130.105 120.475 128.321C117.906 124.671 115.52 120.92 113.317 117.068C113.192 116.767 113.239 116.414 113.444 116.111C113.649 115.808 113.99 115.59 114.366 115.519C117.376 114.95 120.387 115.291 122.905 116.486C123.42 116.814 123.49 117.485 123.061 117.992C122.617 118.483 121.859 118.627 121.332 118.321C119.832 117.644 118.127 117.337 116.373 117.418C116.114 116.976 115.858 116.532 115.605 116.088L114.553 117.638C115.161 117.519 115.77 117.445 116.373 117.418C119.788 123.261 123.635 128.865 127.893 134.199C127.731 134.191 127.569 134.183 127.407 134.175L128.14 134.508C128.058 134.405 127.975 134.302 127.893 134.199C131.088 134.355 134.287 134.494 137.486 134.634C138.237 134.666 138.988 134.699 139.739 134.732C140.091 134.754 140.392 134.92 140.556 135.183C140.72 135.447 140.728 135.778 140.578 136.082C138.194 139.787 135.415 143.308 132.287 146.589C131.24 146.811 130.192 147.02 129.142 147.218L130.115 148.775C130.856 148.059 131.58 147.33 132.287 146.589C137.937 145.394 143.535 143.859 149.043 141.993C149.524 141.802 150.051 141.9 150.341 142.233C150.631 142.567 150.617 143.058 150.305 143.444C144.745 150.268 139.185 157.092 133.624 163.917C132.436 164.373 131.251 164.837 130.07 165.309L131.319 166.747C132.087 165.804 132.856 164.861 133.624 163.917C135.03 163.378 136.44 162.849 137.854 162.328C147.111 158.917 156.5 155.907 165.984 153.31C166.413 153.245 166.814 153.406 167.011 153.721C167.207 154.036 167.164 154.448 166.899 154.775C164.931 157.368 162.964 159.959 160.995 162.549C154.771 170.768 148.532 178.977 142.277 187.179C141.189 187.66 140.104 188.145 139.02 188.634L140.165 189.946C140.869 189.024 141.573 188.101 142.277 187.179C143.912 186.456 145.551 185.741 147.195 185.036C156.817 180.905 166.553 177.089 176.401 173.587C177.107 173.334 178.081 173.876 177.594 174.608L171.654 183.583C165.115 193.427 158.575 203.27 152.035 213.112C151.202 213.555 150.368 213.999 149.535 214.442L150.565 215.325C151.055 214.587 151.545 213.849 152.035 213.112C154.245 211.936 156.454 210.759 158.664 209.582C161.227 208.218 163.788 206.851 166.349 205.485ZM102.841 101.497C102.79 101.627 102.754 101.764 102.736 101.907C102.68 102.045 102.455 101.969 102.514 101.832C102.662 101.61 102.773 101.368 102.848 101.113C102.844 101.241 102.842 101.369 102.841 101.497ZM102.932 99.9028C102.928 99.9577 102.932 100.014 102.942 100.071C102.978 100.426 102.945 100.78 102.848 101.113C102.859 100.707 102.886 100.302 102.927 99.899L102.932 99.9028ZM102.932 99.9028C102.949 99.6155 103.15 99.3702 103.437 99.3143C103.78 99.2477 104.121 99.4741 104.207 99.825C104.478 100.945 104.636 102.087 104.677 103.233L104.954 106.583C105.013 107.301 105.067 108.02 105.121 108.738C105.154 109.18 105.187 109.621 105.221 110.063C105.233 110.226 105.244 110.391 105.255 110.555C105.278 110.906 105.301 111.258 105.338 111.608C105.457 112.177 105.392 112.764 105.153 113.28C104.998 113.521 104.728 113.657 104.442 113.637C104.156 113.618 103.896 113.446 103.758 113.185C103.488 112.65 103.37 112.052 103.418 111.461L103.321 109.917C103.3 109.59 103.279 109.263 103.258 108.936C103.208 108.148 103.158 107.36 103.114 106.572L102.924 103.228C102.866 102.652 102.839 102.074 102.841 101.497C103.001 101.094 103.312 100.769 103.716 100.6L102.932 99.9028Z" fill="#FFD5CE"/>
<path fill-rule="evenodd" clip-rule="evenodd" d="M156.227 367.861C151.708 363.467 147.569 358.697 143.854 353.602L143.855 353.601C143.463 353.079 142.498 353.544 142.818 354.159C146.3 360.605 150.881 366.396 156.35 371.268C165.939 380.02 177.351 386.509 189.739 390.255C195.954 392.16 202.361 393.346 208.833 393.791C212.31 393.997 215.792 393.991 219.26 393.773L219.323 393.744C220.862 393.04 222.402 392.342 223.945 391.652C224.664 392.179 225.683 391.64 225.676 390.883C226.297 390.608 226.92 390.335 227.543 390.064L228.178 392.739C225.224 393.24 222.248 393.585 219.26 393.773L215.457 395.517C215.703 395.494 215.949 395.602 216.099 395.809C216.284 396.063 216.282 396.406 216.096 396.655C215.41 397.474 214.664 398.196 213.909 398.927C213.655 399.174 213.399 399.421 213.145 399.673L211.166 397.599C210.683 397.978 210.483 398.642 210.713 399.248C210.989 399.979 211.79 400.365 212.526 400.123C213.942 399.616 215.316 399.001 216.636 398.283L220.552 396.46C223.222 395.22 225.881 393.953 228.527 392.659C229.162 392.406 229.517 391.727 229.366 391.055C229.211 390.379 228.58 389.92 227.893 389.984C227.109 390.138 226.323 390.278 225.535 390.406C225.51 390.362 225.481 390.318 225.447 390.275C224.226 388.649 222.837 387.158 221.302 385.824C220.497 385.142 219.647 384.515 218.757 383.949C218.068 383.375 217.227 383.014 216.337 382.908C216.062 382.937 215.815 383.091 215.669 383.325C215.524 383.56 215.495 383.849 215.591 384.108C216.071 384.828 216.712 385.426 217.463 385.854C218.152 386.373 218.817 386.923 219.484 387.475C219.539 387.52 219.594 387.566 219.65 387.612C220.848 388.597 221.991 389.648 223.072 390.76C217.67 391.441 212.197 391.506 206.759 390.949C194.218 389.729 182.079 385.733 171.218 379.25C165.818 376.023 160.789 372.203 156.227 367.861ZM213.773 396.234C214.252 396.017 214.737 395.813 215.228 395.622L215.457 395.517C215.402 395.522 215.348 395.533 215.294 395.552C214.771 395.759 214.268 395.991 213.773 396.234ZM213.773 396.234C212.878 396.64 212.004 397.092 211.154 397.587L211.166 397.599C211.265 397.521 211.376 397.455 211.497 397.405C211.807 397.247 212.113 397.087 212.418 396.928C212.869 396.692 213.318 396.458 213.773 396.234Z" fill="#FFD5CE"/>
<path fill-rule="evenodd" clip-rule="evenodd" d="M438.989 176C438.989 108.069 383.92 53 315.989 53C248.058 53 192.989 108.069 192.989 176V348.4C192.989 351.76 192.989 353.44 193.643 354.724C194.218 355.853 195.136 356.771 196.265 357.346C197.549 358 199.229 358 202.589 358H429.389C432.75 358 434.43 358 435.713 357.346C436.842 356.771 437.76 355.853 438.335 354.724C438.989 353.44 438.989 351.76 438.989 348.4V176Z" fill="#F7CC47"/>
<mask id="mask0_167_17999" style="mask-type:alpha" maskUnits="userSpaceOnUse" x="192" y="53" width="247" height="305">
<path fill-rule="evenodd" clip-rule="evenodd" d="M438.989 176C438.989 108.069 383.92 53 315.989 53C248.058 53 192.989 108.069 192.989 176V348.4C192.989 351.76 192.989 353.44 193.643 354.724C194.218 355.853 195.136 356.771 196.265 357.346C197.549 358 199.229 358 202.589 358H429.389C432.75 358 434.43 358 435.713 357.346C436.842 356.771 437.76 355.853 438.335 354.724C438.989 353.44 438.989 351.76 438.989 348.4V176Z" fill="white"/>
</mask>
<g mask="url(#mask0_167_17999)">
</g>
<rect x="18.9902" y="216" width="214" height="112" rx="6" fill="white"/>
<circle cx="58.4902" cy="256.5" r="22.5" fill="#F7CC47"/>
<rect x="101.99" y="243" width="62" height="14" rx="2" fill="#FFE4DF"/>
<rect x="101.99" y="281" width="6" height="29" rx="3" fill="#FFE4DF"/>
<rect x="118.99" y="276" width="6" height="34" rx="3" fill="#FFE4DF"/>
<rect x="136.99" y="272" width="6" height="38" rx="3" fill="#FFE4DF"/>
<rect x="153.99" y="279" width="6" height="31" rx="3" fill="#FFE4DF"/>
<rect x="170.99" y="285" width="6" height="25" rx="3" fill="#FFE4DF"/>
<rect x="188.99" y="281" width="6" height="29" rx="3" fill="#FFE4DF"/>
<rect x="205.99" y="289" width="6" height="21" rx="3" fill="#FFE4DF"/>
<path d="M80.4268 124.801L55.3318 154.774L64.6261 116.804L28.4766 131.681L54.3519 102.38L15.4293 98.7533L51.9579 84.8328L19.1788 63.5337L57.9925 68.1833L38.8663 34.0907L71.0733 56.2454L69.9815 17.1694L88.2036 51.7538L105.396 16.6464L105.459 55.7375L136.998 32.6413L118.887 67.284L157.546 61.4901L125.41 83.748L162.334 96.5837L123.536 101.358L150.265 129.883L113.692 116.079L124.103 153.759L98.1342 124.54L89.8428 162.742L80.4268 124.801Z" fill="#F094E3"/>
<path fill-rule="evenodd" clip-rule="evenodd" d="M96.75 80.75C96.75 85.1683 93.1683 88.75 88.75 88.75C84.3317 88.75 80.75 85.1683 80.75 80.75C80.75 76.3317 84.3317 72.75 88.75 72.75C93.1683 72.75 96.75 76.3317 96.75 80.75ZM72.75 102.085C72.75 104.751 75.4167 104.751 75.4167 104.751H102.083C102.083 104.751 104.75 104.751 104.75 102.085C104.75 99.418 102.083 91.418 88.75 91.418C75.4167 91.418 72.75 99.418 72.75 102.085Z" fill="white"/>
</svg>
