<svg width="289" height="117" viewBox="0 0 289 117" fill="none" xmlns="http://www.w3.org/2000/svg">
<g filter="url(#filter0_d_167_18256)">
<rect width="283.111" height="110.885" transform="translate(0.444336 0.328125)" fill="white"/>
<path d="M26.9278 24.2263H21.5568V35.5508H25.3262V32.8329H26.9278C29.4839 32.8329 31.3281 31.0372 31.3281 28.5134C31.3281 25.9897 29.4839 24.2263 26.9278 24.2263ZM26.1998 29.7268H25.3262V27.3325H26.1998C26.9278 27.3325 27.4131 27.8178 27.4131 28.5296C27.4131 29.2414 26.9278 29.7268 26.1998 29.7268ZM37.6355 26.7824C36.6648 26.7824 35.9368 27.0574 35.3382 27.7207L34.8529 26.8148H32.2968V35.5508H35.9206V31.1828C35.9206 30.4224 36.3574 30.0018 37.1339 30.0018H38.4605V26.7824H37.6355ZM48.8898 31.0534C48.8898 28.4164 46.819 26.4912 43.8261 26.4912C40.8979 26.4912 38.811 28.4326 38.811 31.1666C38.811 33.9006 40.9141 35.8743 43.8261 35.8743C46.2042 35.8743 48.0647 34.6286 48.6794 32.5417H45.2659C45.0233 32.9785 44.4732 33.2212 43.8261 33.2212C43.001 33.2212 42.451 32.8006 42.2569 31.9431H48.8089C48.8574 31.6358 48.8898 31.3446 48.8898 31.0534ZM43.8261 29.1282C44.6512 29.1282 45.2012 29.5488 45.3792 30.2768H42.2892C42.5157 29.5165 43.0334 29.1282 43.8261 29.1282ZM55.4766 26.4912C54.4413 26.4912 53.5191 26.8633 52.8073 27.4942L52.4837 26.8148H49.9438V38.7054H53.4868V35.3728C54.0692 35.6964 54.7325 35.8743 55.4766 35.8743C58.1945 35.8743 60.0388 33.9977 60.0388 31.1828C60.0388 28.3678 58.1945 26.4912 55.4766 26.4912ZM54.8133 32.8653C53.8912 32.8653 53.2117 32.1534 53.2117 31.1828C53.2117 30.2121 53.8912 29.5003 54.8133 29.5003C55.7355 29.5003 56.4149 30.2121 56.4149 31.1828C56.4149 32.1534 55.7193 32.8653 54.8133 32.8653ZM66.7433 26.5236C65.9668 26.5236 65.255 26.7339 64.6564 27.0898V23.6601H61.1135V35.5508H63.8151L64.0902 34.9198C64.7858 35.5346 65.7079 35.8743 66.7433 35.8743C69.4612 35.8743 71.3055 33.9977 71.3055 31.199C71.3055 28.4002 69.4612 26.5236 66.7433 26.5236ZM66.08 32.8653C65.1579 32.8653 64.4784 32.1534 64.4784 31.199C64.4784 30.2445 65.1579 29.5326 66.08 29.5326C67.0022 29.5326 67.6816 30.2445 67.6816 31.199C67.6816 32.1534 66.986 32.8653 66.08 32.8653ZM77.0371 35.8743C80.0623 35.8743 82.1492 33.9654 82.1492 31.1828C82.1492 28.4002 80.0623 26.4912 77.0371 26.4912C74.0118 26.4912 71.9249 28.4002 71.9249 31.1828C71.9249 33.9654 74.0118 35.8743 77.0371 35.8743ZM77.0371 32.752C76.1635 32.752 75.5164 32.1049 75.5164 31.1828C75.5164 30.2606 76.1635 29.6135 77.0371 29.6135C77.9107 29.6135 78.5578 30.2768 78.5578 31.1828C78.5578 32.1049 77.9107 32.752 77.0371 32.752ZM87.8749 35.8743C90.9002 35.8743 92.9871 33.9654 92.9871 31.1828C92.9871 28.4002 90.9002 26.4912 87.8749 26.4912C84.8497 26.4912 82.7627 28.4002 82.7627 31.1828C82.7627 33.9654 84.8497 35.8743 87.8749 35.8743ZM87.8749 32.752C87.0013 32.752 86.3542 32.1049 86.3542 31.1828C86.3542 30.2606 87.0013 29.6135 87.8749 29.6135C88.7485 29.6135 89.3956 30.2768 89.3956 31.1828C89.3956 32.1049 88.7485 32.752 87.8749 32.752ZM103.534 35.5508L100.751 31.0048L103.323 26.8148H99.3113L97.6774 29.743V23.6601H94.0536V35.5508H97.6774V32.4123L99.3437 35.5508H103.534Z" fill="#EF6D58"/>
<path d="M22.3859 63.6575L23.0465 62.889V67.257L22.696 66.7919H26.464V68.0052H22.696L23.0465 67.5401V71.9418L22.3859 71.1734H27.2123V72.3867H21.577V62.4441H27.2123V63.6575H22.3859ZM34.4747 65.2281L32.1558 72.3867H30.2145L27.835 65.2281H29.345L31.2998 71.7733H31.0706L32.9647 65.2281H34.4747ZM35.8453 69.3197V68.1805H41.1166L40.9144 68.5175C40.9144 68.4906 40.9144 68.4636 40.9144 68.4366C40.9144 68.4052 40.9144 68.3782 40.9144 68.3558C40.9144 67.9918 40.8357 67.657 40.6785 67.3514C40.5212 67.0413 40.2853 66.7942 39.9707 66.6099C39.6606 66.4212 39.2719 66.3268 38.8045 66.3268C38.3372 66.3268 37.926 66.4279 37.571 66.6301C37.2205 66.8279 36.9463 67.111 36.7486 67.4795C36.5554 67.8435 36.4588 68.2816 36.4588 68.7939C36.4588 69.3152 36.5531 69.7646 36.7419 70.1421C36.9306 70.515 37.2025 70.8026 37.5575 71.0049C37.9125 71.2071 38.3372 71.3082 38.8315 71.3082C39.1775 71.3082 39.4764 71.2745 39.728 71.2071C39.9842 71.1352 40.1931 71.0408 40.3549 70.924C40.5212 70.8071 40.647 70.6813 40.7324 70.5465C40.8178 70.4072 40.8672 70.2701 40.8807 70.1353H42.3367C42.3097 70.4274 42.2131 70.7173 42.0468 71.0049C41.8851 71.288 41.6536 71.5464 41.3525 71.7801C41.0559 72.0092 40.6919 72.1935 40.2605 72.3328C39.8336 72.4676 39.3415 72.535 38.7843 72.535C38.0383 72.535 37.3845 72.3777 36.8228 72.0632C36.261 71.7486 35.8229 71.3127 35.5083 70.7555C35.1937 70.1937 35.0365 69.5511 35.0365 68.8276C35.0365 68.0906 35.196 67.4435 35.5151 66.8863C35.8341 66.329 36.2768 65.8954 36.843 65.5853C37.4092 65.2707 38.0586 65.1135 38.7911 65.1135C39.537 65.1135 40.1819 65.2707 40.7256 65.5853C41.2739 65.8999 41.6963 66.3335 41.9929 66.8863C42.2895 67.439 42.4378 68.0749 42.4378 68.7939C42.4378 68.8793 42.4355 68.9782 42.4311 69.0905C42.4266 69.2028 42.4198 69.2792 42.4108 69.3197H35.8453ZM44.0008 72.3867V65.2281H45.4635V67.5132L45.0726 67.3379C45.104 67.0458 45.1782 66.7672 45.295 66.5021C45.4119 66.2369 45.5669 66.001 45.7601 65.7943C45.9579 65.5831 46.2005 65.4168 46.4881 65.2955C46.7757 65.1741 47.1083 65.1135 47.4858 65.1135C47.7734 65.1135 48.0048 65.1359 48.1801 65.1809C48.3598 65.2258 48.4699 65.2618 48.5104 65.2887L48.2003 66.6638C48.1553 66.6324 48.0632 66.5919 47.9239 66.5425C47.7891 66.4931 47.6004 66.4683 47.3577 66.4683C46.9892 66.4683 46.6836 66.5335 46.441 66.6638C46.1983 66.7942 46.0051 66.9672 45.8612 67.1829C45.7174 67.3986 45.6141 67.6345 45.5512 67.8906C45.4928 68.1423 45.4635 68.3962 45.4635 68.6523V72.3867H44.0008ZM49.9647 75.4335C49.7714 75.4335 49.5939 75.4223 49.4322 75.3998C49.2749 75.3819 49.1783 75.3639 49.1423 75.3459V74.1528C49.2007 74.1798 49.2973 74.2022 49.4322 74.2202C49.5715 74.2382 49.7153 74.2472 49.8636 74.2472C50.1287 74.2472 50.3556 74.1932 50.5444 74.0854C50.7376 73.9775 50.8994 73.827 51.0297 73.6338C51.1645 73.445 51.2724 73.2293 51.3533 72.9866L51.5353 72.4474L49.0682 65.2281H50.5916L52.4318 71.2947H52.243L54.0361 65.2281H55.5393L52.971 72.9125C52.8138 73.3933 52.6205 73.8225 52.3913 74.2C52.1622 74.582 51.8566 74.883 51.4746 75.1032C51.0926 75.3234 50.5893 75.4335 49.9647 75.4335ZM59.8153 72.5081C59.5771 72.5081 59.339 72.4833 59.1008 72.4339C58.8671 72.3845 58.6514 72.2946 58.4537 72.1643C58.2605 72.0295 58.1054 71.8385 57.9886 71.5913C57.8717 71.3442 57.8133 71.0206 57.8133 70.6206C57.8133 70.5263 57.8133 70.4274 57.8133 70.3241C57.8133 70.2207 57.8133 70.1151 57.8133 70.0072V66.4414H56.0944V65.2281H56.9977C57.1909 65.2281 57.3415 65.2213 57.4493 65.2078C57.5617 65.1899 57.6426 65.1517 57.692 65.0932C57.7459 65.0303 57.7796 64.9315 57.7931 64.7966C57.8066 64.6618 57.8133 64.4776 57.8133 64.2439V62.8621H59.2761V65.2281H61.4668V66.4414H59.2761V69.6163C59.2761 69.7062 59.2761 69.796 59.2761 69.8859C59.2761 69.9758 59.2761 70.0589 59.2761 70.1353C59.2761 70.4948 59.3188 70.7779 59.4041 70.9846C59.494 71.1914 59.6962 71.2947 60.0108 71.2947C60.1456 71.2947 60.2737 71.2835 60.395 71.261C60.5164 71.2385 60.6085 71.2138 60.6714 71.1869V72.38C60.5905 72.4114 60.4759 72.4406 60.3276 72.4676C60.1793 72.4946 60.0086 72.5081 59.8153 72.5081ZM67.8992 72.3867V69.7646C67.8992 69.6477 67.8992 69.5062 67.8992 69.3399C67.8992 69.1736 67.8992 69.0051 67.8992 68.8343C67.8992 68.6591 67.8992 68.513 67.8992 68.3962C67.8992 67.7536 67.7666 67.266 67.5014 66.9335C67.2408 66.6009 66.8116 66.4346 66.214 66.4346C65.814 66.4346 65.468 66.5133 65.1759 66.6706C64.8838 66.8279 64.6569 67.0436 64.4951 67.3177C64.3378 67.5918 64.2592 67.9041 64.2592 68.2546L63.5716 67.9715C63.5716 67.4278 63.7019 66.9424 63.9626 66.5155C64.2277 66.0841 64.5894 65.7426 65.0478 65.4909C65.5107 65.2393 66.0387 65.1135 66.6319 65.1135C67.4947 65.1135 68.1643 65.3719 68.6406 65.8886C69.1215 66.4009 69.3619 67.1155 69.3619 68.0322C69.3619 68.2659 69.3619 68.5422 69.3619 68.8613C69.3619 69.1759 69.3619 69.5197 69.3619 69.8926V72.3867H67.8992ZM62.7964 72.3867V61.8509H64.2592V72.3867H62.7964ZM71.162 72.3867V65.2281H72.6045V72.3867H71.162ZM71.89 63.7451C71.6383 63.7451 71.4204 63.6777 71.2361 63.5429C71.0564 63.4036 70.9665 63.2126 70.9665 62.9699C70.9665 62.7317 71.0564 62.5452 71.2361 62.4104C71.4204 62.2711 71.6383 62.2015 71.89 62.2015C72.1371 62.2015 72.3506 62.2711 72.5304 62.4104C72.7146 62.5452 72.8067 62.7317 72.8067 62.9699C72.8067 63.2126 72.7146 63.4036 72.5304 63.5429C72.3506 63.6777 72.1371 63.7451 71.89 63.7451ZM79.5802 72.3867V69.0838C79.5802 68.8905 79.5802 68.7265 79.5802 68.5917C79.5802 68.4569 79.5802 68.331 79.5802 68.2142C79.5802 67.8637 79.5263 67.5559 79.4184 67.2907C79.3106 67.0211 79.1331 66.8121 78.8859 66.6638C78.6388 66.511 78.3085 66.4346 77.895 66.4346C77.531 66.4346 77.2007 66.5245 76.9042 66.7043C76.6121 66.884 76.3784 67.1289 76.2031 67.439C76.0323 67.7446 75.947 68.0929 75.947 68.4838L75.3201 68.1738C75.3201 67.5941 75.4571 67.075 75.7313 66.6166C76.0054 66.1538 76.3716 65.7875 76.83 65.5179C77.2929 65.2483 77.7984 65.1135 78.3467 65.1135C78.9129 65.1135 79.396 65.2236 79.7959 65.4438C80.2004 65.6595 80.5082 65.9695 80.7194 66.374C80.9351 66.7739 81.043 67.2525 81.043 67.8098C81.043 68.0165 81.043 68.2457 81.043 68.4973C81.043 68.749 81.043 68.9916 81.043 69.2253V72.3867H79.5802ZM74.4842 72.3867V65.2281H75.947V72.3867H74.4842ZM87.5147 71.8138C87.9192 71.8497 88.2742 71.9261 88.5797 72.0429C88.8853 72.1553 89.1235 72.3216 89.2943 72.5418C89.4695 72.7664 89.5572 73.0608 89.5572 73.4248C89.5572 73.8337 89.4178 74.1887 89.1392 74.4898C88.8651 74.7954 88.4539 75.0313 87.9057 75.1976C87.3574 75.3684 86.6766 75.4538 85.8632 75.4538C84.6993 75.4538 83.8118 75.2852 83.2006 74.9482C82.5895 74.6112 82.2839 74.1528 82.2839 73.5731C82.2839 73.3978 82.3041 73.2428 82.3446 73.108C82.385 72.9732 82.4344 72.8608 82.4929 72.7709L83.8545 72.9732C83.823 73.0181 83.7916 73.0833 83.7601 73.1686C83.7287 73.2585 83.7129 73.3664 83.7129 73.4922C83.7129 73.8113 83.9084 74.0382 84.2994 74.173C84.6903 74.3078 85.2318 74.3752 85.9239 74.3752C86.4317 74.3752 86.8519 74.3393 87.1844 74.2674C87.5214 74.2 87.7731 74.1011 87.9394 73.9708C88.1056 73.8405 88.1888 73.6877 88.1888 73.5124C88.1888 73.2473 88.0742 73.081 87.845 73.0136C87.6158 72.9462 87.3394 72.899 87.0159 72.8721L84.2994 72.6496C83.8275 72.6092 83.4411 72.4676 83.14 72.2249C82.8434 71.9823 82.6951 71.6767 82.6951 71.3082C82.6951 71.079 82.7535 70.8656 82.8703 70.6678C82.9872 70.4701 83.122 70.3038 83.2748 70.169C83.4321 70.0342 83.5669 69.9511 83.6792 69.9196L84.6364 70.378C84.5331 70.3915 84.4072 70.4611 84.2589 70.5869C84.1151 70.7083 84.0432 70.8521 84.0432 71.0183C84.0432 71.1711 84.1061 71.297 84.232 71.3958C84.3623 71.4947 84.6139 71.5599 84.9869 71.5913L87.5147 71.8138ZM88.4112 65.2281H89.7392L89.1932 68.0255C89.0943 68.5467 88.9123 69.0186 88.6472 69.441C88.3865 69.8589 88.0315 70.1892 87.5821 70.4319C87.1372 70.6746 86.5822 70.7959 85.9172 70.7959C85.2251 70.7959 84.6297 70.6768 84.1309 70.4386C83.632 70.2005 83.2478 69.8702 82.9782 69.4478C82.7131 69.0208 82.5805 68.5355 82.5805 67.9918C82.5805 67.439 82.7175 66.9447 82.9917 66.5088C83.2703 66.0729 83.6523 65.7314 84.1376 65.4842C84.6274 65.237 85.1869 65.1135 85.816 65.1135C86.3463 65.1135 86.8159 65.2033 87.2249 65.3831C87.6383 65.5628 87.9663 65.792 88.209 66.0706C88.4517 66.3493 88.5842 66.6391 88.6067 66.9402L88.1888 66.9874L88.4112 65.2281ZM85.9104 69.6028C86.3014 69.6028 86.6384 69.5399 86.9215 69.4141C87.2046 69.2837 87.4226 69.0972 87.5754 68.8546C87.7282 68.6074 87.8046 68.3108 87.8046 67.9648C87.8046 67.6233 87.7282 67.3312 87.5754 67.0885C87.4226 66.8413 87.2046 66.6526 86.9215 66.5223C86.6384 66.3875 86.3036 66.3201 85.9172 66.3201C85.5442 66.3201 85.2139 66.3897 84.9263 66.529C84.6432 66.6638 84.4207 66.8548 84.2589 67.102C84.0972 67.3491 84.0163 67.6435 84.0163 67.985C84.0163 68.3265 84.0927 68.6186 84.2454 68.8613C84.3982 69.0995 84.6162 69.2837 84.8993 69.4141C85.1824 69.5399 85.5194 69.6028 85.9104 69.6028ZM94.7032 75.4335C94.51 75.4335 94.3324 75.4223 94.1707 75.3998C94.0134 75.3819 93.9168 75.3639 93.8808 75.3459V74.1528C93.9392 74.1798 94.0359 74.2022 94.1707 74.2202C94.31 74.2382 94.4538 74.2472 94.6021 74.2472C94.8672 74.2472 95.0941 74.1932 95.2829 74.0854C95.4761 73.9775 95.6379 73.827 95.7682 73.6338C95.903 73.445 96.0109 73.2293 96.0918 72.9866L96.2738 72.4474L93.8067 65.2281H95.3301L97.1703 71.2947H96.9816L98.7746 65.2281H100.278L97.7096 72.9125C97.5523 73.3933 97.359 73.8225 97.1299 74.2C96.9007 74.582 96.5951 74.883 96.2131 75.1032C95.8311 75.3234 95.3278 75.4335 94.7032 75.4335ZM104.583 72.5215C103.846 72.5215 103.194 72.362 102.628 72.0429C102.066 71.7239 101.626 71.2857 101.307 70.7285C100.992 70.1668 100.835 69.5242 100.835 68.8006C100.835 68.0816 100.992 67.4458 101.307 66.893C101.626 66.3358 102.066 65.9021 102.628 65.5921C103.194 65.2775 103.846 65.1202 104.583 65.1202C105.32 65.1202 105.969 65.2775 106.531 65.5921C107.097 65.9021 107.538 66.3358 107.852 66.893C108.171 67.4458 108.331 68.0816 108.331 68.8006C108.331 69.5242 108.171 70.1668 107.852 70.7285C107.538 71.2857 107.097 71.7239 106.531 72.0429C105.969 72.362 105.32 72.5215 104.583 72.5215ZM104.583 71.2678C105.032 71.2678 105.428 71.1666 105.769 70.9644C106.111 70.7622 106.378 70.4768 106.571 70.1083C106.765 69.7354 106.861 69.2995 106.861 68.8006C106.861 68.3063 106.765 67.8772 106.571 67.5132C106.378 67.1492 106.111 66.8683 105.769 66.6706C105.428 66.4728 105.032 66.374 104.583 66.374C104.138 66.374 103.743 66.4728 103.397 66.6706C103.055 66.8683 102.788 67.1492 102.594 67.5132C102.401 67.8772 102.305 68.3063 102.305 68.8006C102.305 69.2995 102.401 69.7354 102.594 70.1083C102.788 70.4768 103.055 70.7622 103.397 70.9644C103.743 71.1666 104.138 71.2678 104.583 71.2678ZM112.5 72.5148C111.992 72.5148 111.57 72.4294 111.233 72.2586C110.896 72.0834 110.629 71.8564 110.431 71.5778C110.233 71.2947 110.094 70.9869 110.013 70.6543C109.932 70.3173 109.892 69.9893 109.892 69.6702C109.892 69.5039 109.892 69.3309 109.892 69.1512C109.892 68.9669 109.892 68.7827 109.892 68.5984V65.2281H111.361V68.3895C111.361 68.5512 111.361 68.7108 111.361 68.8681C111.361 69.0208 111.361 69.1646 111.361 69.2995C111.361 69.6455 111.406 69.9645 111.496 70.2566C111.586 70.5442 111.743 70.7779 111.968 70.9577C112.197 71.1329 112.516 71.2206 112.925 71.2206C113.307 71.2206 113.639 71.1082 113.923 70.8835C114.206 70.6543 114.426 70.3667 114.583 70.0207C114.74 69.6702 114.819 69.3197 114.819 68.9692L115.459 69.3129C115.459 69.7264 115.39 70.1241 115.25 70.5061C115.116 70.888 114.92 71.2318 114.664 71.5374C114.408 71.8385 114.096 72.0766 113.727 72.2519C113.363 72.4272 112.954 72.5148 112.5 72.5148ZM114.819 72.3867V65.2281H116.282V72.3867H114.819ZM127.139 72.3867L125.305 65.2281H126.492L128.251 71.8542H128.002L129.148 65.2281H130.664L129.154 72.3867H127.139ZM122.252 72.3867L120.735 65.2281H122.252L123.411 71.8542H123.155L124.901 65.2281H126.087L124.281 72.3867H122.252ZM134.262 72.5283C133.722 72.5283 133.248 72.4429 132.839 72.2721C132.435 72.1014 132.12 71.8564 131.896 71.5374C131.671 71.2183 131.559 70.8341 131.559 70.3847C131.559 69.9039 131.684 69.5062 131.936 69.1916C132.192 68.877 132.543 68.6344 132.988 68.4636C133.437 68.2883 133.947 68.1738 134.518 68.1198C135.367 68.0344 135.965 67.9513 136.311 67.8704C136.661 67.7895 136.837 67.657 136.837 67.4727C136.837 67.4682 136.837 67.4637 136.837 67.4592C136.837 67.0952 136.682 66.8189 136.371 66.6301C136.061 66.4414 135.619 66.347 135.044 66.347C134.437 66.347 133.967 66.4549 133.635 66.6706C133.307 66.8818 133.143 67.2188 133.143 67.6817H131.707C131.707 67.1334 131.848 66.6683 132.132 66.2863C132.419 65.9044 132.815 65.6145 133.318 65.4168C133.821 65.2146 134.399 65.1135 135.05 65.1135C135.648 65.1135 136.192 65.2056 136.682 65.3898C137.176 65.5696 137.569 65.8392 137.861 66.1987C138.153 66.5582 138.299 67.0054 138.299 67.5401C138.299 67.6345 138.299 67.7289 138.299 67.8232C138.299 67.9131 138.299 68.0052 138.299 68.0996V70.9577C138.299 71.124 138.306 71.2857 138.32 71.443C138.333 71.5958 138.358 71.7329 138.394 71.8542C138.434 71.9935 138.481 72.1081 138.535 72.198C138.594 72.2879 138.641 72.3508 138.677 72.3867H137.221C137.194 72.3598 137.153 72.3036 137.099 72.2182C137.05 72.1283 137.005 72.025 136.965 71.9081C136.924 71.7958 136.893 71.6677 136.87 71.5239C136.852 71.3756 136.843 71.2161 136.843 71.0453L137.113 71.2341C136.978 71.4947 136.774 71.7216 136.5 71.9149C136.23 72.1081 135.904 72.2586 135.522 72.3665C135.145 72.4743 134.725 72.5283 134.262 72.5283ZM134.565 71.3149C134.983 71.3149 135.363 71.2498 135.704 71.1195C136.05 70.9846 136.327 70.7824 136.533 70.5128C136.74 70.2387 136.843 69.8949 136.843 69.4815V68.2951L137.187 68.7467C136.9 68.8591 136.547 68.9512 136.129 69.0231C135.715 69.0905 135.288 69.1467 134.848 69.1916C134.241 69.2455 133.785 69.3511 133.48 69.5084C133.174 69.6612 133.021 69.9174 133.021 70.2769C133.021 70.6229 133.147 70.8835 133.399 71.0588C133.655 71.2296 134.044 71.3149 134.565 71.3149ZM145.104 72.3867V69.0838C145.104 68.8905 145.104 68.7265 145.104 68.5917C145.104 68.4569 145.104 68.331 145.104 68.2142C145.104 67.8637 145.05 67.5559 144.942 67.2907C144.834 67.0211 144.657 66.8121 144.41 66.6638C144.162 66.511 143.832 66.4346 143.419 66.4346C143.055 66.4346 142.724 66.5245 142.428 66.7043C142.136 66.884 141.902 67.1289 141.727 67.439C141.556 67.7446 141.471 68.0929 141.471 68.4838L140.844 68.1738C140.844 67.5941 140.981 67.075 141.255 66.6166C141.529 66.1538 141.895 65.7875 142.354 65.5179C142.817 65.2483 143.322 65.1135 143.87 65.1135C144.437 65.1135 144.92 65.2236 145.32 65.4438C145.724 65.6595 146.032 65.9695 146.243 66.374C146.459 66.7739 146.567 67.2525 146.567 67.8098C146.567 68.0165 146.567 68.2457 146.567 68.4973C146.567 68.749 146.567 68.9916 146.567 69.2253V72.3867H145.104ZM140.008 72.3867V65.2281H141.471V72.3867H140.008ZM151.216 72.5081C150.978 72.5081 150.74 72.4833 150.502 72.4339C150.268 72.3845 150.052 72.2946 149.854 72.1643C149.661 72.0295 149.506 71.8385 149.389 71.5913C149.272 71.3442 149.214 71.0206 149.214 70.6206C149.214 70.5263 149.214 70.4274 149.214 70.3241C149.214 70.2207 149.214 70.1151 149.214 70.0072V66.4414H147.495V65.2281H148.398C148.592 65.2281 148.742 65.2213 148.85 65.2078C148.962 65.1899 149.043 65.1517 149.093 65.0932C149.147 65.0303 149.18 64.9315 149.194 64.7966C149.207 64.6618 149.214 64.4776 149.214 64.2439V62.8621H150.677V65.2281H152.868V66.4414H150.677V69.6163C150.677 69.7062 150.677 69.796 150.677 69.8859C150.677 69.9758 150.677 70.0589 150.677 70.1353C150.677 70.4948 150.72 70.7779 150.805 70.9846C150.895 71.1914 151.097 71.2947 151.412 71.2947C151.546 71.2947 151.674 71.2835 151.796 71.261C151.917 71.2385 152.009 71.2138 152.072 71.1869V72.38C151.991 72.4114 151.877 72.4406 151.728 72.4676C151.58 72.4946 151.409 72.5081 151.216 72.5081ZM160.56 72.5081C160.322 72.5081 160.084 72.4833 159.846 72.4339C159.612 72.3845 159.397 72.2946 159.199 72.1643C159.006 72.0295 158.851 71.8385 158.734 71.5913C158.617 71.3442 158.558 71.0206 158.558 70.6206C158.558 70.5263 158.558 70.4274 158.558 70.3241C158.558 70.2207 158.558 70.1151 158.558 70.0072V66.4414H156.84V65.2281H157.743C157.936 65.2281 158.087 65.2213 158.194 65.2078C158.307 65.1899 158.388 65.1517 158.437 65.0932C158.491 65.0303 158.525 64.9315 158.538 64.7966C158.552 64.6618 158.558 64.4776 158.558 64.2439V62.8621H160.021V65.2281H162.212V66.4414H160.021V69.6163C160.021 69.7062 160.021 69.796 160.021 69.8859C160.021 69.9758 160.021 70.0589 160.021 70.1353C160.021 70.4948 160.064 70.7779 160.149 70.9846C160.239 71.1914 160.441 71.2947 160.756 71.2947C160.891 71.2947 161.019 71.2835 161.14 71.261C161.261 71.2385 161.354 71.2138 161.417 71.1869V72.38C161.336 72.4114 161.221 72.4406 161.073 72.4676C160.924 72.4946 160.754 72.5081 160.56 72.5081ZM166.789 72.5215C166.052 72.5215 165.4 72.362 164.834 72.0429C164.272 71.7239 163.832 71.2857 163.513 70.7285C163.198 70.1668 163.041 69.5242 163.041 68.8006C163.041 68.0816 163.198 67.4458 163.513 66.893C163.832 66.3358 164.272 65.9021 164.834 65.5921C165.4 65.2775 166.052 65.1202 166.789 65.1202C167.526 65.1202 168.175 65.2775 168.737 65.5921C169.303 65.9021 169.744 66.3358 170.058 66.893C170.377 67.4458 170.537 68.0816 170.537 68.8006C170.537 69.5242 170.377 70.1668 170.058 70.7285C169.744 71.2857 169.303 71.7239 168.737 72.0429C168.175 72.362 167.526 72.5215 166.789 72.5215ZM166.789 71.2678C167.238 71.2678 167.634 71.1666 167.975 70.9644C168.317 70.7622 168.584 70.4768 168.777 70.1083C168.971 69.7354 169.067 69.2995 169.067 68.8006C169.067 68.3063 168.971 67.8772 168.777 67.5132C168.584 67.1492 168.317 66.8683 167.975 66.6706C167.634 66.4728 167.238 66.374 166.789 66.374C166.344 66.374 165.949 66.4728 165.603 66.6706C165.261 66.8683 164.994 67.1492 164.8 67.5132C164.607 67.8772 164.511 68.3063 164.511 68.8006C164.511 69.2995 164.607 69.7354 164.8 70.1083C164.994 70.4768 165.261 70.7622 165.603 70.9644C165.949 71.1666 166.344 71.2678 166.789 71.2678ZM176.944 61.8509V72.3867H175.502V61.8509H176.944ZM179.354 69.3197V68.1805H184.625L184.423 68.5175C184.423 68.4906 184.423 68.4636 184.423 68.4366C184.423 68.4052 184.423 68.3782 184.423 68.3558C184.423 67.9918 184.345 67.657 184.187 67.3514C184.03 67.0413 183.794 66.7942 183.479 66.6099C183.169 66.4212 182.781 66.3268 182.313 66.3268C181.846 66.3268 181.435 66.4279 181.08 66.6301C180.729 66.8279 180.455 67.111 180.257 67.4795C180.064 67.8435 179.968 68.2816 179.968 68.7939C179.968 69.3152 180.062 69.7646 180.251 70.1421C180.439 70.515 180.711 70.8026 181.066 71.0049C181.421 71.2071 181.846 71.3082 182.34 71.3082C182.686 71.3082 182.985 71.2745 183.237 71.2071C183.493 71.1352 183.702 71.0408 183.864 70.924C184.03 70.8071 184.156 70.6813 184.241 70.5465C184.327 70.4072 184.376 70.2701 184.389 70.1353H185.845C185.819 70.4274 185.722 70.7173 185.556 71.0049C185.394 71.288 185.162 71.5464 184.861 71.7801C184.565 72.0092 184.201 72.1935 183.769 72.3328C183.342 72.4676 182.85 72.535 182.293 72.535C181.547 72.535 180.893 72.3777 180.332 72.0632C179.77 71.7486 179.332 71.3127 179.017 70.7555C178.703 70.1937 178.545 69.5511 178.545 68.8276C178.545 68.0906 178.705 67.4435 179.024 66.8863C179.343 66.329 179.786 65.8954 180.352 65.5853C180.918 65.2707 181.567 65.1135 182.3 65.1135C183.046 65.1135 183.691 65.2707 184.234 65.5853C184.783 65.8999 185.205 66.3335 185.502 66.8863C185.798 67.439 185.947 68.0749 185.947 68.7939C185.947 68.8793 185.944 68.9782 185.94 69.0905C185.935 69.2028 185.929 69.2792 185.92 69.3197H179.354ZM189.99 72.5283C189.451 72.5283 188.977 72.4429 188.568 72.2721C188.163 72.1014 187.849 71.8564 187.624 71.5374C187.4 71.2183 187.287 70.8341 187.287 70.3847C187.287 69.9039 187.413 69.5062 187.665 69.1916C187.921 68.877 188.271 68.6344 188.716 68.4636C189.166 68.2883 189.676 68.1738 190.246 68.1198C191.096 68.0344 191.693 67.9513 192.039 67.8704C192.39 67.7895 192.565 67.657 192.565 67.4727C192.565 67.4682 192.565 67.4637 192.565 67.4592C192.565 67.0952 192.41 66.8189 192.1 66.6301C191.79 66.4414 191.347 66.347 190.772 66.347C190.165 66.347 189.696 66.4549 189.363 66.6706C189.035 66.8818 188.871 67.2188 188.871 67.6817H187.435C187.435 67.1334 187.577 66.6683 187.86 66.2863C188.148 65.9044 188.543 65.6145 189.046 65.4168C189.55 65.2146 190.127 65.1135 190.779 65.1135C191.377 65.1135 191.92 65.2056 192.41 65.3898C192.904 65.5696 193.298 65.8392 193.59 66.1987C193.882 66.5582 194.028 67.0054 194.028 67.5401C194.028 67.6345 194.028 67.7289 194.028 67.8232C194.028 67.9131 194.028 68.0052 194.028 68.0996V70.9577C194.028 71.124 194.035 71.2857 194.048 71.443C194.062 71.5958 194.086 71.7329 194.122 71.8542C194.163 71.9935 194.21 72.1081 194.264 72.198C194.322 72.2879 194.369 72.3508 194.405 72.3867H192.949C192.922 72.3598 192.882 72.3036 192.828 72.2182C192.779 72.1283 192.734 72.025 192.693 71.9081C192.653 71.7958 192.621 71.6677 192.599 71.5239C192.581 71.3756 192.572 71.2161 192.572 71.0453L192.842 71.2341C192.707 71.4947 192.502 71.7216 192.228 71.9149C191.958 72.1081 191.633 72.2586 191.251 72.3665C190.873 72.4743 190.453 72.5283 189.99 72.5283ZM190.294 71.3149C190.711 71.3149 191.091 71.2498 191.433 71.1195C191.779 70.9846 192.055 70.7824 192.262 70.5128C192.469 70.2387 192.572 69.8949 192.572 69.4815V68.2951L192.916 68.7467C192.628 68.8591 192.275 68.9512 191.857 69.0231C191.444 69.0905 191.017 69.1467 190.577 69.1916C189.97 69.2455 189.514 69.3511 189.208 69.5084C188.903 69.6612 188.75 69.9174 188.75 70.2769C188.75 70.6229 188.876 70.8835 189.127 71.0588C189.384 71.2296 189.772 71.3149 190.294 71.3149ZM195.736 72.3867V65.2281H197.199V67.5132L196.808 67.3379C196.84 67.0458 196.914 66.7672 197.031 66.5021C197.148 66.2369 197.303 66.001 197.496 65.7943C197.694 65.5831 197.936 65.4168 198.224 65.2955C198.511 65.1741 198.844 65.1135 199.221 65.1135C199.509 65.1135 199.74 65.1359 199.916 65.1809C200.095 65.2258 200.206 65.2618 200.246 65.2887L199.936 66.6638C199.891 66.6324 199.799 66.5919 199.66 66.5425C199.525 66.4931 199.336 66.4683 199.093 66.4683C198.725 66.4683 198.419 66.5335 198.177 66.6638C197.934 66.7942 197.741 66.9672 197.597 67.1829C197.453 67.3986 197.35 67.6345 197.287 67.8906C197.228 68.1423 197.199 68.3962 197.199 68.6523V72.3867H195.736ZM206.453 72.3867V69.0838C206.453 68.8905 206.453 68.7265 206.453 68.5917C206.453 68.4569 206.453 68.331 206.453 68.2142C206.453 67.8637 206.399 67.5559 206.291 67.2907C206.183 67.0211 206.005 66.8121 205.758 66.6638C205.511 66.511 205.181 66.4346 204.767 66.4346C204.403 66.4346 204.073 66.5245 203.776 66.7043C203.484 66.884 203.251 67.1289 203.075 67.439C202.905 67.7446 202.819 68.0929 202.819 68.4838L202.192 68.1738C202.192 67.5941 202.329 67.075 202.604 66.6166C202.878 66.1538 203.244 65.7875 203.702 65.5179C204.165 65.2483 204.671 65.1135 205.219 65.1135C205.785 65.1135 206.268 65.2236 206.668 65.4438C207.073 65.6595 207.381 65.9695 207.592 66.374C207.807 66.7739 207.915 67.2525 207.915 67.8098C207.915 68.0165 207.915 68.2457 207.915 68.4973C207.915 68.749 207.915 68.9916 207.915 69.2253V72.3867H206.453ZM201.357 72.3867V65.2281H202.819V72.3867H201.357ZM209.918 74.3281L209.702 73.9438C209.882 73.8629 210.064 73.7349 210.248 73.5596C210.432 73.3843 210.588 73.1934 210.713 72.9866C210.844 72.7844 210.909 72.5957 210.909 72.4204C210.909 72.3665 210.902 72.3148 210.889 72.2654C210.875 72.2115 210.855 72.1643 210.828 72.1238H211.199C211.14 72.2676 211.039 72.3777 210.895 72.4541C210.756 72.5305 210.603 72.5687 210.437 72.5687C210.199 72.5687 209.99 72.4946 209.81 72.3463C209.635 72.198 209.547 71.9845 209.547 71.7059C209.547 71.4363 209.642 71.2183 209.83 71.0521C210.019 70.8858 210.264 70.8026 210.565 70.8026C210.889 70.8026 211.145 70.906 211.333 71.1127C211.522 71.3149 211.617 71.5913 211.617 71.9418C211.617 72.2879 211.529 72.6226 211.354 72.9462C211.183 73.2698 210.967 73.5506 210.707 73.7888C210.446 74.0315 210.183 74.2112 209.918 74.3281ZM22.3859 83.6575L23.0465 82.889V87.257L22.696 86.7919H26.464V88.0052H22.696L23.0465 87.5401V91.9418L22.3859 91.1734H27.2123V92.3867H21.577V82.4441H27.2123V83.6575H22.3859ZM34.4747 85.2281L32.1558 92.3867H30.2145L27.835 85.2281H29.345L31.2998 91.7733H31.0706L32.9647 85.2281H34.4747ZM35.8453 89.3197V88.1805H41.1166L40.9144 88.5175C40.9144 88.4906 40.9144 88.4636 40.9144 88.4366C40.9144 88.4052 40.9144 88.3782 40.9144 88.3558C40.9144 87.9918 40.8357 87.657 40.6785 87.3514C40.5212 87.0413 40.2853 86.7942 39.9707 86.6099C39.6606 86.4212 39.2719 86.3268 38.8045 86.3268C38.3372 86.3268 37.926 86.4279 37.571 86.6301C37.2205 86.8279 36.9463 87.111 36.7486 87.4795C36.5554 87.8435 36.4588 88.2816 36.4588 88.7939C36.4588 89.3152 36.5531 89.7646 36.7419 90.1421C36.9306 90.515 37.2025 90.8026 37.5575 91.0049C37.9125 91.2071 38.3372 91.3082 38.8315 91.3082C39.1775 91.3082 39.4764 91.2745 39.728 91.2071C39.9842 91.1352 40.1931 91.0408 40.3549 90.924C40.5212 90.8071 40.647 90.6813 40.7324 90.5465C40.8178 90.4072 40.8672 90.2701 40.8807 90.1353H42.3367C42.3097 90.4274 42.2131 90.7173 42.0468 91.0049C41.8851 91.288 41.6536 91.5464 41.3525 91.7801C41.0559 92.0092 40.6919 92.1935 40.2605 92.3328C39.8336 92.4676 39.3415 92.535 38.7843 92.535C38.0383 92.535 37.3845 92.3777 36.8228 92.0632C36.261 91.7486 35.8229 91.3127 35.5083 90.7555C35.1937 90.1937 35.0365 89.5511 35.0365 88.8276C35.0365 88.0906 35.196 87.4435 35.5151 86.8863C35.8341 86.329 36.2768 85.8954 36.843 85.5853C37.4092 85.2707 38.0586 85.1135 38.7911 85.1135C39.537 85.1135 40.1819 85.2707 40.7256 85.5853C41.2739 85.8999 41.6963 86.3335 41.9929 86.8863C42.2895 87.439 42.4378 88.0749 42.4378 88.7939C42.4378 88.8793 42.4355 88.9782 42.4311 89.0905C42.4266 89.2028 42.4198 89.2792 42.4108 89.3197H35.8453ZM44.0008 92.3867V85.2281H45.4635V87.5132L45.0726 87.3379C45.104 87.0458 45.1782 86.7672 45.295 86.5021C45.4119 86.2369 45.5669 86.001 45.7601 85.7943C45.9579 85.5831 46.2005 85.4168 46.4881 85.2955C46.7757 85.1741 47.1083 85.1135 47.4858 85.1135C47.7734 85.1135 48.0048 85.1359 48.1801 85.1809C48.3598 85.2258 48.4699 85.2618 48.5104 85.2887L48.2003 86.6638C48.1553 86.6324 48.0632 86.5919 47.9239 86.5425C47.7891 86.4931 47.6004 86.4683 47.3577 86.4683C46.9892 86.4683 46.6836 86.5335 46.441 86.6638C46.1983 86.7942 46.0051 86.9672 45.8612 87.1829C45.7174 87.3986 45.6141 87.6345 45.5512 87.8906C45.4928 88.1423 45.4635 88.3962 45.4635 88.6523V92.3867H44.0008ZM49.9647 95.4335C49.7714 95.4335 49.5939 95.4223 49.4322 95.3998C49.2749 95.3819 49.1783 95.3639 49.1423 95.3459V94.1528C49.2007 94.1798 49.2973 94.2022 49.4322 94.2202C49.5715 94.2382 49.7153 94.2472 49.8636 94.2472C50.1287 94.2472 50.3556 94.1932 50.5444 94.0854C50.7376 93.9775 50.8994 93.827 51.0297 93.6338C51.1645 93.445 51.2724 93.2293 51.3533 92.9866L51.5353 92.4474L49.0682 85.2281H50.5916L52.4318 91.2947H52.243L54.0361 85.2281H55.5393L52.971 92.9125C52.8138 93.3933 52.6205 93.8225 52.3913 94.2C52.1622 94.582 51.8566 94.883 51.4746 95.1032C51.0926 95.3234 50.5893 95.4335 49.9647 95.4335ZM59.8153 92.5081C59.5771 92.5081 59.339 92.4833 59.1008 92.4339C58.8671 92.3845 58.6514 92.2946 58.4537 92.1643C58.2605 92.0295 58.1054 91.8385 57.9886 91.5913C57.8717 91.3442 57.8133 91.0206 57.8133 90.6206C57.8133 90.5263 57.8133 90.4274 57.8133 90.3241C57.8133 90.2207 57.8133 90.1151 57.8133 90.0072V86.4414H56.0944V85.2281H56.9977C57.1909 85.2281 57.3415 85.2213 57.4493 85.2078C57.5617 85.1899 57.6426 85.1517 57.692 85.0932C57.7459 85.0303 57.7796 84.9315 57.7931 84.7966C57.8066 84.6618 57.8133 84.4776 57.8133 84.2439V82.8621H59.2761V85.2281H61.4668V86.4414H59.2761V89.6163C59.2761 89.7062 59.2761 89.796 59.2761 89.8859C59.2761 89.9758 59.2761 90.0589 59.2761 90.1353C59.2761 90.4948 59.3188 90.7779 59.4041 90.9846C59.494 91.1914 59.6962 91.2947 60.0108 91.2947C60.1456 91.2947 60.2737 91.2835 60.395 91.261C60.5164 91.2385 60.6085 91.2138 60.6714 91.1869V92.38C60.5905 92.4114 60.4759 92.4406 60.3276 92.4676C60.1793 92.4946 60.0086 92.5081 59.8153 92.5081ZM67.8992 92.3867V89.7646C67.8992 89.6477 67.8992 89.5062 67.8992 89.3399C67.8992 89.1736 67.8992 89.0051 67.8992 88.8343C67.8992 88.6591 67.8992 88.513 67.8992 88.3962C67.8992 87.7536 67.7666 87.266 67.5014 86.9335C67.2408 86.6009 66.8116 86.4346 66.214 86.4346C65.814 86.4346 65.468 86.5133 65.1759 86.6706C64.8838 86.8279 64.6569 87.0436 64.4951 87.3177C64.3378 87.5918 64.2592 87.9041 64.2592 88.2546L63.5716 87.9715C63.5716 87.4278 63.7019 86.9424 63.9626 86.5155C64.2277 86.0841 64.5894 85.7426 65.0478 85.4909C65.5107 85.2393 66.0387 85.1135 66.6319 85.1135C67.4947 85.1135 68.1643 85.3719 68.6406 85.8886C69.1215 86.4009 69.3619 87.1155 69.3619 88.0322C69.3619 88.2659 69.3619 88.5422 69.3619 88.8613C69.3619 89.1759 69.3619 89.5197 69.3619 89.8926V92.3867H67.8992ZM62.7964 92.3867V81.8509H64.2592V92.3867H62.7964ZM71.162 92.3867V85.2281H72.6045V92.3867H71.162ZM71.89 83.7451C71.6383 83.7451 71.4204 83.6777 71.2361 83.5429C71.0564 83.4036 70.9665 83.2126 70.9665 82.9699C70.9665 82.7317 71.0564 82.5452 71.2361 82.4104C71.4204 82.2711 71.6383 82.2015 71.89 82.2015C72.1371 82.2015 72.3506 82.2711 72.5304 82.4104C72.7146 82.5452 72.8067 82.7317 72.8067 82.9699C72.8067 83.2126 72.7146 83.4036 72.5304 83.5429C72.3506 83.6777 72.1371 83.7451 71.89 83.7451ZM79.5802 92.3867V89.0838C79.5802 88.8905 79.5802 88.7265 79.5802 88.5917C79.5802 88.4569 79.5802 88.331 79.5802 88.2142C79.5802 87.8637 79.5263 87.5559 79.4184 87.2907C79.3106 87.0211 79.1331 86.8121 78.8859 86.6638C78.6388 86.511 78.3085 86.4346 77.895 86.4346C77.531 86.4346 77.2007 86.5245 76.9042 86.7043C76.6121 86.884 76.3784 87.1289 76.2031 87.439C76.0323 87.7446 75.947 88.0929 75.947 88.4838L75.3201 88.1738C75.3201 87.5941 75.4571 87.075 75.7313 86.6166C76.0054 86.1538 76.3716 85.7875 76.83 85.5179C77.2929 85.2483 77.7984 85.1135 78.3467 85.1135C78.9129 85.1135 79.396 85.2236 79.7959 85.4438C80.2004 85.6595 80.5082 85.9695 80.7194 86.374C80.9351 86.7739 81.043 87.2525 81.043 87.8098C81.043 88.0165 81.043 88.2457 81.043 88.4973C81.043 88.749 81.043 88.9916 81.043 89.2253V92.3867H79.5802ZM74.4842 92.3867V85.2281H75.947V92.3867H74.4842ZM87.5147 91.8138C87.9192 91.8497 88.2742 91.9261 88.5797 92.0429C88.8853 92.1553 89.1235 92.3216 89.2943 92.5418C89.4695 92.7664 89.5572 93.0608 89.5572 93.4248C89.5572 93.8337 89.4178 94.1887 89.1392 94.4898C88.8651 94.7954 88.4539 95.0313 87.9057 95.1976C87.3574 95.3684 86.6766 95.4538 85.8632 95.4538C84.6993 95.4538 83.8118 95.2852 83.2006 94.9482C82.5895 94.6112 82.2839 94.1528 82.2839 93.5731C82.2839 93.3978 82.3041 93.2428 82.3446 93.108C82.385 92.9732 82.4344 92.8608 82.4929 92.7709L83.8545 92.9732C83.823 93.0181 83.7916 93.0833 83.7601 93.1686C83.7287 93.2585 83.7129 93.3664 83.7129 93.4922C83.7129 93.8113 83.9084 94.0382 84.2994 94.173C84.6903 94.3078 85.2318 94.3752 85.9239 94.3752C86.4317 94.3752 86.8519 94.3393 87.1844 94.2674C87.5214 94.2 87.7731 94.1011 87.9394 93.9708C88.1056 93.8405 88.1888 93.6877 88.1888 93.5124C88.1888 93.2473 88.0742 93.081 87.845 93.0136C87.6158 92.9462 87.3394 92.899 87.0159 92.8721L84.2994 92.6496C83.8275 92.6092 83.4411 92.4676 83.14 92.2249C82.8434 91.9823 82.6951 91.6767 82.6951 91.3082C82.6951 91.079 82.7535 90.8656 82.8703 90.6678C82.9872 90.4701 83.122 90.3038 83.2748 90.169C83.4321 90.0342 83.5669 89.9511 83.6792 89.9196L84.6364 90.378C84.5331 90.3915 84.4072 90.4611 84.2589 90.5869C84.1151 90.7083 84.0432 90.8521 84.0432 91.0183C84.0432 91.1711 84.1061 91.297 84.232 91.3958C84.3623 91.4947 84.6139 91.5599 84.9869 91.5913L87.5147 91.8138ZM88.4112 85.2281H89.7392L89.1932 88.0255C89.0943 88.5467 88.9123 89.0186 88.6472 89.441C88.3865 89.8589 88.0315 90.1892 87.5821 90.4319C87.1372 90.6746 86.5822 90.7959 85.9172 90.7959C85.2251 90.7959 84.6297 90.6768 84.1309 90.4386C83.632 90.2005 83.2478 89.8702 82.9782 89.4478C82.7131 89.0208 82.5805 88.5355 82.5805 87.9918C82.5805 87.439 82.7175 86.9447 82.9917 86.5088C83.2703 86.0729 83.6523 85.7314 84.1376 85.4842C84.6274 85.237 85.1869 85.1135 85.816 85.1135C86.3463 85.1135 86.8159 85.2033 87.2249 85.3831C87.6383 85.5628 87.9663 85.792 88.209 86.0706C88.4517 86.3493 88.5842 86.6391 88.6067 86.9402L88.1888 86.9874L88.4112 85.2281ZM85.9104 89.6028C86.3014 89.6028 86.6384 89.5399 86.9215 89.4141C87.2046 89.2837 87.4226 89.0972 87.5754 88.8546C87.7282 88.6074 87.8046 88.3108 87.8046 87.9648C87.8046 87.6233 87.7282 87.3312 87.5754 87.0885C87.4226 86.8413 87.2046 86.6526 86.9215 86.5223C86.6384 86.3875 86.3036 86.3201 85.9172 86.3201C85.5442 86.3201 85.2139 86.3897 84.9263 86.529C84.6432 86.6638 84.4207 86.8548 84.2589 87.102C84.0972 87.3491 84.0163 87.6435 84.0163 87.985C84.0163 88.3265 84.0927 88.6186 84.2454 88.8613C84.3982 89.0995 84.6162 89.2837 84.8993 89.4141C85.1824 89.5399 85.5194 89.6028 85.9104 89.6028ZM94.7032 95.4335C94.51 95.4335 94.3324 95.4223 94.1707 95.3998C94.0134 95.3819 93.9168 95.3639 93.8808 95.3459V94.1528C93.9392 94.1798 94.0359 94.2022 94.1707 94.2202C94.31 94.2382 94.4538 94.2472 94.6021 94.2472C94.8672 94.2472 95.0941 94.1932 95.2829 94.0854C95.4761 93.9775 95.6379 93.827 95.7682 93.6338C95.903 93.445 96.0109 93.2293 96.0918 92.9866L96.2738 92.4474L93.8067 85.2281H95.3301L97.1703 91.2947H96.9816L98.7746 85.2281H100.278L97.7096 92.9125C97.5523 93.3933 97.359 93.8225 97.1299 94.2C96.9007 94.582 96.5951 94.883 96.2131 95.1032C95.8311 95.3234 95.3278 95.4335 94.7032 95.4335ZM104.583 92.5215C103.846 92.5215 103.194 92.362 102.628 92.0429C102.066 91.7239 101.626 91.2857 101.307 90.7285C100.992 90.1668 100.835 89.5242 100.835 88.8006C100.835 88.0816 100.992 87.4458 101.307 86.893C101.626 86.3358 102.066 85.9021 102.628 85.5921C103.194 85.2775 103.846 85.1202 104.583 85.1202C105.32 85.1202 105.969 85.2775 106.531 85.5921C107.097 85.9021 107.538 86.3358 107.852 86.893C108.171 87.4458 108.331 88.0816 108.331 88.8006C108.331 89.5242 108.171 90.1668 107.852 90.7285C107.538 91.2857 107.097 91.7239 106.531 92.0429C105.969 92.362 105.32 92.5215 104.583 92.5215ZM104.583 91.2678C105.032 91.2678 105.428 91.1666 105.769 90.9644C106.111 90.7622 106.378 90.4768 106.571 90.1083C106.765 89.7354 106.861 89.2995 106.861 88.8006C106.861 88.3063 106.765 87.8772 106.571 87.5132C106.378 87.1492 106.111 86.8683 105.769 86.6706C105.428 86.4728 105.032 86.374 104.583 86.374C104.138 86.374 103.743 86.4728 103.397 86.6706C103.055 86.8683 102.788 87.1492 102.594 87.5132C102.401 87.8772 102.305 88.3063 102.305 88.8006C102.305 89.2995 102.401 89.7354 102.594 90.1083C102.788 90.4768 103.055 90.7622 103.397 90.9644C103.743 91.1666 104.138 91.2678 104.583 91.2678ZM112.5 92.5148C111.992 92.5148 111.57 92.4294 111.233 92.2586C110.896 92.0834 110.629 91.8564 110.431 91.5778C110.233 91.2947 110.094 90.9869 110.013 90.6543C109.932 90.3173 109.892 89.9893 109.892 89.6702C109.892 89.5039 109.892 89.3309 109.892 89.1512C109.892 88.9669 109.892 88.7827 109.892 88.5984V85.2281H111.361V88.3895C111.361 88.5512 111.361 88.7108 111.361 88.8681C111.361 89.0208 111.361 89.1646 111.361 89.2995C111.361 89.6455 111.406 89.9645 111.496 90.2566C111.586 90.5442 111.743 90.7779 111.968 90.9577C112.197 91.1329 112.516 91.2206 112.925 91.2206C113.307 91.2206 113.639 91.1082 113.923 90.8835C114.206 90.6543 114.426 90.3667 114.583 90.0207C114.74 89.6702 114.819 89.3197 114.819 88.9692L115.459 89.3129C115.459 89.7264 115.39 90.1241 115.25 90.5061C115.116 90.888 114.92 91.2318 114.664 91.5374C114.408 91.8385 114.096 92.0766 113.727 92.2519C113.363 92.4272 112.954 92.5148 112.5 92.5148ZM114.819 92.3867V85.2281H116.282V92.3867H114.819ZM127.139 92.3867L125.305 85.2281H126.492L128.251 91.8542H128.002L129.148 85.2281H130.664L129.154 92.3867H127.139ZM122.252 92.3867L120.735 85.2281H122.252L123.411 91.8542H123.155L124.901 85.2281H126.087L124.281 92.3867H122.252ZM134.262 92.5283C133.722 92.5283 133.248 92.4429 132.839 92.2721C132.435 92.1014 132.12 91.8564 131.896 91.5374C131.671 91.2183 131.559 90.8341 131.559 90.3847C131.559 89.9039 131.684 89.5062 131.936 89.1916C132.192 88.877 132.543 88.6344 132.988 88.4636C133.437 88.2883 133.947 88.1738 134.518 88.1198C135.367 88.0344 135.965 87.9513 136.311 87.8704C136.661 87.7895 136.837 87.657 136.837 87.4727C136.837 87.4682 136.837 87.4637 136.837 87.4592C136.837 87.0952 136.682 86.8189 136.371 86.6301C136.061 86.4414 135.619 86.347 135.044 86.347C134.437 86.347 133.967 86.4549 133.635 86.6706C133.307 86.8818 133.143 87.2188 133.143 87.6817H131.707C131.707 87.1334 131.848 86.6683 132.132 86.2863C132.419 85.9044 132.815 85.6145 133.318 85.4168C133.821 85.2146 134.399 85.1135 135.05 85.1135C135.648 85.1135 136.192 85.2056 136.682 85.3898C137.176 85.5696 137.569 85.8392 137.861 86.1987C138.153 86.5582 138.299 87.0054 138.299 87.5401C138.299 87.6345 138.299 87.7289 138.299 87.8232C138.299 87.9131 138.299 88.0052 138.299 88.0996V90.9577C138.299 91.124 138.306 91.2857 138.32 91.443C138.333 91.5958 138.358 91.7329 138.394 91.8542C138.434 91.9935 138.481 92.1081 138.535 92.198C138.594 92.2879 138.641 92.3508 138.677 92.3867H137.221C137.194 92.3598 137.153 92.3036 137.099 92.2182C137.05 92.1283 137.005 92.025 136.965 91.9081C136.924 91.7958 136.893 91.6677 136.87 91.5239C136.852 91.3756 136.843 91.2161 136.843 91.0453L137.113 91.2341C136.978 91.4947 136.774 91.7216 136.5 91.9149C136.23 92.1081 135.904 92.2586 135.522 92.3665C135.145 92.4743 134.725 92.5283 134.262 92.5283ZM134.565 91.3149C134.983 91.3149 135.363 91.2498 135.704 91.1195C136.05 90.9846 136.327 90.7824 136.533 90.5128C136.74 90.2387 136.843 89.8949 136.843 89.4815V88.2951L137.187 88.7467C136.9 88.8591 136.547 88.9512 136.129 89.0231C135.715 89.0905 135.288 89.1467 134.848 89.1916C134.241 89.2455 133.785 89.3511 133.48 89.5084C133.174 89.6612 133.021 89.9174 133.021 90.2769C133.021 90.6229 133.147 90.8835 133.399 91.0588C133.655 91.2296 134.044 91.3149 134.565 91.3149ZM145.104 92.3867V89.0838C145.104 88.8905 145.104 88.7265 145.104 88.5917C145.104 88.4569 145.104 88.331 145.104 88.2142C145.104 87.8637 145.05 87.5559 144.942 87.2907C144.834 87.0211 144.657 86.8121 144.41 86.6638C144.162 86.511 143.832 86.4346 143.419 86.4346C143.055 86.4346 142.724 86.5245 142.428 86.7043C142.136 86.884 141.902 87.1289 141.727 87.439C141.556 87.7446 141.471 88.0929 141.471 88.4838L140.844 88.1738C140.844 87.5941 140.981 87.075 141.255 86.6166C141.529 86.1538 141.895 85.7875 142.354 85.5179C142.817 85.2483 143.322 85.1135 143.87 85.1135C144.437 85.1135 144.92 85.2236 145.32 85.4438C145.724 85.6595 146.032 85.9695 146.243 86.374C146.459 86.7739 146.567 87.2525 146.567 87.8098C146.567 88.0165 146.567 88.2457 146.567 88.4973C146.567 88.749 146.567 88.9916 146.567 89.2253V92.3867H145.104ZM140.008 92.3867V85.2281H141.471V92.3867H140.008ZM151.216 92.5081C150.978 92.5081 150.74 92.4833 150.502 92.4339C150.268 92.3845 150.052 92.2946 149.854 92.1643C149.661 92.0295 149.506 91.8385 149.389 91.5913C149.272 91.3442 149.214 91.0206 149.214 90.6206C149.214 90.5263 149.214 90.4274 149.214 90.3241C149.214 90.2207 149.214 90.1151 149.214 90.0072V86.4414H147.495V85.2281H148.398C148.592 85.2281 148.742 85.2213 148.85 85.2078C148.962 85.1899 149.043 85.1517 149.093 85.0932C149.147 85.0303 149.18 84.9315 149.194 84.7966C149.207 84.6618 149.214 84.4776 149.214 84.2439V82.8621H150.677V85.2281H152.868V86.4414H150.677V89.6163C150.677 89.7062 150.677 89.796 150.677 89.8859C150.677 89.9758 150.677 90.0589 150.677 90.1353C150.677 90.4948 150.72 90.7779 150.805 90.9846C150.895 91.1914 151.097 91.2947 151.412 91.2947C151.546 91.2947 151.674 91.2835 151.796 91.261C151.917 91.2385 152.009 91.2138 152.072 91.1869V92.38C151.991 92.4114 151.877 92.4406 151.728 92.4676C151.58 92.4946 151.409 92.5081 151.216 92.5081ZM160.56 92.5081C160.322 92.5081 160.084 92.4833 159.846 92.4339C159.612 92.3845 159.397 92.2946 159.199 92.1643C159.006 92.0295 158.851 91.8385 158.734 91.5913C158.617 91.3442 158.558 91.0206 158.558 90.6206C158.558 90.5263 158.558 90.4274 158.558 90.3241C158.558 90.2207 158.558 90.1151 158.558 90.0072V86.4414H156.84V85.2281H157.743C157.936 85.2281 158.087 85.2213 158.194 85.2078C158.307 85.1899 158.388 85.1517 158.437 85.0932C158.491 85.0303 158.525 84.9315 158.538 84.7966C158.552 84.6618 158.558 84.4776 158.558 84.2439V82.8621H160.021V85.2281H162.212V86.4414H160.021V89.6163C160.021 89.7062 160.021 89.796 160.021 89.8859C160.021 89.9758 160.021 90.0589 160.021 90.1353C160.021 90.4948 160.064 90.7779 160.149 90.9846C160.239 91.1914 160.441 91.2947 160.756 91.2947C160.891 91.2947 161.019 91.2835 161.14 91.261C161.261 91.2385 161.354 91.2138 161.417 91.1869V92.38C161.336 92.4114 161.221 92.4406 161.073 92.4676C160.924 92.4946 160.754 92.5081 160.56 92.5081ZM166.789 92.5215C166.052 92.5215 165.4 92.362 164.834 92.0429C164.272 91.7239 163.832 91.2857 163.513 90.7285C163.198 90.1668 163.041 89.5242 163.041 88.8006C163.041 88.0816 163.198 87.4458 163.513 86.893C163.832 86.3358 164.272 85.9021 164.834 85.5921C165.4 85.2775 166.052 85.1202 166.789 85.1202C167.526 85.1202 168.175 85.2775 168.737 85.5921C169.303 85.9021 169.744 86.3358 170.058 86.893C170.377 87.4458 170.537 88.0816 170.537 88.8006C170.537 89.5242 170.377 90.1668 170.058 90.7285C169.744 91.2857 169.303 91.7239 168.737 92.0429C168.175 92.362 167.526 92.5215 166.789 92.5215ZM166.789 91.2678C167.238 91.2678 167.634 91.1666 167.975 90.9644C168.317 90.7622 168.584 90.4768 168.777 90.1083C168.971 89.7354 169.067 89.2995 169.067 88.8006C169.067 88.3063 168.971 87.8772 168.777 87.5132C168.584 87.1492 168.317 86.8683 167.975 86.6706C167.634 86.4728 167.238 86.374 166.789 86.374C166.344 86.374 165.949 86.4728 165.603 86.6706C165.261 86.8683 164.994 87.1492 164.8 87.5132C164.607 87.8772 164.511 88.3063 164.511 88.8006C164.511 89.2995 164.607 89.7354 164.8 90.1083C164.994 90.4768 165.261 90.7622 165.603 90.9644C165.949 91.1666 166.344 91.2678 166.789 91.2678ZM175.4 92.3867V81.8509H176.789V88.167L176.432 87.9985L179.627 85.2281H181.467L178.002 88.2951L178.353 87.6412L181.467 92.3867H179.91L177.402 88.4299L177.733 88.531L176.607 89.5286L176.789 88.8613V92.3867H175.4ZM187.617 92.3867V89.0838C187.617 88.8905 187.617 88.7265 187.617 88.5917C187.617 88.4569 187.617 88.331 187.617 88.2142C187.617 87.8637 187.564 87.5559 187.456 87.2907C187.348 87.0211 187.17 86.8121 186.923 86.6638C186.676 86.511 186.346 86.4346 185.932 86.4346C185.568 86.4346 185.238 86.5245 184.941 86.7043C184.649 86.884 184.416 87.1289 184.24 87.439C184.07 87.7446 183.984 88.0929 183.984 88.4838L183.357 88.1738C183.357 87.5941 183.494 87.075 183.768 86.6166C184.043 86.1538 184.409 85.7875 184.867 85.5179C185.33 85.2483 185.836 85.1135 186.384 85.1135C186.95 85.1135 187.433 85.2236 187.833 85.4438C188.238 85.6595 188.545 85.9695 188.757 86.374C188.972 86.7739 189.08 87.2525 189.08 87.8098C189.08 88.0165 189.08 88.2457 189.08 88.4973C189.08 88.749 189.08 88.9916 189.08 89.2253V92.3867H187.617ZM182.521 92.3867V85.2281H183.984V92.3867H182.521ZM194.312 92.5215C193.575 92.5215 192.923 92.362 192.357 92.0429C191.795 91.7239 191.355 91.2857 191.036 90.7285C190.721 90.1668 190.564 89.5242 190.564 88.8006C190.564 88.0816 190.721 87.4458 191.036 86.893C191.355 86.3358 191.795 85.9021 192.357 85.5921C192.923 85.2775 193.575 85.1202 194.312 85.1202C195.049 85.1202 195.698 85.2775 196.26 85.5921C196.826 85.9021 197.266 86.3358 197.581 86.893C197.9 87.4458 198.059 88.0816 198.059 88.8006C198.059 89.5242 197.9 90.1668 197.581 90.7285C197.266 91.2857 196.826 91.7239 196.26 92.0429C195.698 92.362 195.049 92.5215 194.312 92.5215ZM194.312 91.2678C194.761 91.2678 195.156 91.1666 195.498 90.9644C195.84 90.7622 196.107 90.4768 196.3 90.1083C196.493 89.7354 196.59 89.2995 196.59 88.8006C196.59 88.3063 196.493 87.8772 196.3 87.5132C196.107 87.1492 195.84 86.8683 195.498 86.6706C195.156 86.4728 194.761 86.374 194.312 86.374C193.867 86.374 193.471 86.4728 193.125 86.6706C192.784 86.8683 192.516 87.1492 192.323 87.5132C192.13 87.8772 192.033 88.3063 192.033 88.8006C192.033 89.2995 192.13 89.7354 192.323 90.1083C192.516 90.4768 192.784 90.7622 193.125 90.9644C193.471 91.1666 193.867 91.2678 194.312 91.2678ZM205.219 92.3867L203.386 85.2281H204.572L206.331 91.8542H206.082L207.228 85.2281H208.745L207.235 92.3867H205.219ZM200.332 92.3867L198.815 85.2281H200.332L201.492 91.8542H201.235L202.981 85.2281H204.168L202.361 92.3867H200.332Z" fill="#8D87A6"/>
</g>
<defs>
<filter id="filter0_d_167_18256" x="0.444336" y="0.328125" width="288.167" height="115.942" filterUnits="userSpaceOnUse" color-interpolation-filters="sRGB">
<feFlood flood-opacity="0" result="BackgroundImageFix"/>
<feColorMatrix in="SourceAlpha" type="matrix" values="0 0 0 0 0 0 0 0 0 0 0 0 0 0 0 0 0 0 127 0" result="hardAlpha"/>
<feOffset dx="5.05556" dy="5.05556"/>
<feColorMatrix type="matrix" values="0 0 0 0 1 0 0 0 0 1 0 0 0 0 1 0 0 0 1 0"/>
<feBlend mode="normal" in2="BackgroundImageFix" result="effect1_dropShadow_167_18256"/>
<feBlend mode="normal" in="SourceGraphic" in2="effect1_dropShadow_167_18256" result="shape"/>
</filter>
</defs>
</svg>
