<svg width="48" height="48" viewBox="0 0 48 48" fill="none" xmlns="http://www.w3.org/2000/svg">
<path d="M24 0C10.7445 0 0 10.7445 0 24C0 37.254 10.7445 48 24 48C37.2555 48 48 37.254 48 24C48 10.7445 37.2555 0 24 0Z" fill="#E02F2F"/>
<path d="M27.339 13.329C24.954 14.1975 23.4465 16.4355 23.6175 18.885L23.6745 19.83L22.7205 19.7145C19.248 19.2705 16.2135 17.766 13.6365 15.2385L12.3765 13.9845L12.054 14.91C11.367 16.974 11.8065 19.155 13.2375 20.622C14.001 21.432 13.8285 21.5475 12.513 21.066C12.0555 20.9115 11.6535 20.796 11.616 20.8545C11.4825 20.9895 11.94 22.7445 12.303 23.4405C12.7995 24.4065 13.8105 25.35 14.9175 25.911L15.8535 26.355L14.745 26.3715C13.677 26.3715 13.638 26.391 13.7535 26.7975C14.1345 28.0515 15.642 29.3835 17.322 29.9625L18.5055 30.3675L17.475 30.9855C15.9172 31.8839 14.1579 32.3746 12.36 32.412C11.5005 32.4315 10.794 32.508 10.794 32.5665C10.794 32.7585 13.1235 33.8385 14.4765 34.2645C18.5415 35.5185 23.37 34.977 26.9955 32.8365C29.5725 31.3125 32.148 28.2825 33.351 25.3485C34.0005 23.787 34.6485 20.931 34.6485 19.5615C34.6485 18.6735 34.7055 18.558 35.7735 17.4975C36.4035 16.8795 36.9945 16.2045 37.11 16.0125C37.302 15.645 37.281 15.645 36.309 15.9735C34.6875 16.5525 34.458 16.476 35.2605 15.6075C35.8515 14.9895 36.558 13.8705 36.558 13.5435C36.558 13.4865 36.2715 13.5825 35.9475 13.755C35.604 13.9485 34.8405 14.238 34.2675 14.4105L33.237 14.739L32.3025 14.1C31.7865 13.7535 31.0635 13.3665 30.681 13.251C29.706 12.981 28.218 13.02 27.339 13.329V13.329Z" fill="white"/>
</svg>
