<svg width="48" height="48" viewBox="0 0 48 48" fill="none" xmlns="http://www.w3.org/2000/svg">
<path d="M24 0C10.7445 0 0 10.7445 0 24C0 37.254 10.7445 48 24 48C37.2555 48 48 37.254 48 24C48 10.7445 37.2555 0 24 0V0Z" fill="#E02F2F"/>
<path d="M33.0855 11.8935H14.9145C13.2045 11.8935 11.886 13.212 11.886 14.922V33.0915C11.886 34.8015 13.2045 36.12 14.9145 36.12H33.084C34.794 36.12 36.1125 34.8015 36.1125 33.0915V14.922C36.119 14.5226 36.0451 14.126 35.8953 13.7558C35.7455 13.3855 35.5228 13.0491 35.2404 12.7666C34.9581 12.4841 34.6218 12.2612 34.2516 12.1113C33.8814 11.9613 33.4849 11.8872 33.0855 11.8935V11.8935ZM24.018 19.248C26.7045 19.248 28.8825 21.3585 28.8825 23.961C28.8825 26.5635 26.7045 28.674 24.018 28.674C21.333 28.674 19.155 26.562 19.155 23.961C19.155 21.3585 21.333 19.248 24.018 19.248V19.248ZM33.0855 32.3355C33.0855 32.8665 32.859 33.093 32.328 33.093H15.672C15.1425 33.093 14.9145 32.8665 14.9145 32.3355V21.7365L16.8015 22.1475C16.5943 22.8205 16.4892 23.5208 16.4895 24.225C16.4895 28.251 19.8615 31.5195 24.0165 31.5195C28.1745 31.5195 31.545 28.2525 31.545 24.225C31.5453 23.5208 31.4402 22.8205 31.233 22.1475L33.084 21.7365V32.3355H33.0855ZM33.0855 18.708C33.0855 18.9089 33.0057 19.1016 32.8636 19.2436C32.7216 19.3857 32.5289 19.4655 32.328 19.4655H29.2995C29.0986 19.4655 28.9059 19.3857 28.7639 19.2436C28.6218 19.1016 28.542 18.9089 28.542 18.708V15.6795C28.542 15.261 28.881 14.922 29.2995 14.922H32.328C32.7465 14.922 33.0855 15.261 33.0855 15.6795V18.708V18.708Z" fill="white"/>
</svg>
